<svg
    xmlns="http://www.w3.org/2000/svg"
    viewBox="0, 0, 400,336.63366336633663"
  >
    <g fill="#333">
      <path d="M185.749 44.296 C 139.442 57.056,124.368 113.505,158.694 145.613 C 198.519 182.864,259.406 155.909,259.406 101.026 C 259.406 64.352,220.820 34.633,185.749 44.296 M220.806 58.121 C 253.966 73.563,258.981 119.677,229.913 141.871 C 197.202 166.849,150.368 143.641,150.539 102.539 C 150.687 66.729,188.272 42.971,220.806 58.121 M180.198 101.783 L 180.198 134.653 185.149 134.653 C 189.769 134.653,190.099 133.993,190.099 124.752 L 190.099 114.851 201.088 114.851 C 242.315 114.851,239.503 71.196,198.173 69.605 L 180.198 68.913 180.198 101.783 M216.719 85.589 C 223.657 95.494,215.535 104.950,200.090 104.950 L 190.099 104.950 190.099 93.069 L 190.099 81.188 201.868 81.188 C 211.785 81.188,214.122 81.881,216.719 85.589 M186.744 202.830 C 175.670 205.515,158.514 215.041,146.823 224.997 C 141.471 229.554,136.702 231.553,128.691 232.595 C 84.092 238.396,73.267 245.690,73.267 269.941 C 73.267 281.040,75.794 283.166,89.010 283.181 C 98.960 283.192,100.297 283.716,103.141 288.717 C 104.869 291.755,108.960 295.537,112.232 297.120 C 117.924 299.875,117.437 300.000,100.981 300.000 C 88.220 300.000,84.530 299.450,86.687 297.869 C 90.157 295.325,88.093 286.335,84.367 287.765 C 78.709 289.936,53.465 307.288,53.465 309.007 C 53.465 310.182,108.604 310.891,200.000 310.891 C 282.277 310.891,346.535 310.132,346.535 309.161 C 346.535 305.154,314.589 286.331,312.742 289.250 C 310.424 292.913,310.431 295.775,312.763 298.119 C 313.945 299.306,309.302 300.000,300.176 300.000 L 285.716 300.000 291.265 296.629 C 294.317 294.775,298.234 291.093,299.968 288.446 C 301.702 285.799,305.800 283.097,309.074 282.443 C 327.644 278.729,323.928 227.723,305.087 227.723 C 298.860 227.723,294.840 226.005,286.764 219.892 C 263.797 202.509,219.346 194.927,186.744 202.830 M243.399 213.143 C 243.853 213.538,240.957 213.861,236.964 213.861 L 229.703 213.861 229.703 229.703 L 229.703 245.545 249.505 245.545 C 276.973 245.545,283.364 238.397,269.664 223.000 C 263.782 216.389,277.229 224.349,284.034 231.506 C 288.780 236.498,291.421 237.624,298.390 237.624 C 303.088 237.624,306.931 237.996,306.931 238.452 C 306.931 238.907,307.472 240.690,308.133 242.412 C 309.070 244.854,307.979 245.545,303.182 245.545 C 297.940 245.545,297.030 246.277,297.030 250.495 C 297.030 254.833,297.888 255.446,303.960 255.446 C 311.579 255.446,312.216 256.996,308.717 267.031 C 306.854 272.377,302.521 276.111,303.205 271.782 C 307.327 245.673,259.372 241.258,254.170 267.267 L 252.970 273.267 201.886 273.267 L 150.802 273.267 148.611 266.628 C 140.782 242.905,99.010 245.219,99.010 269.376 C 99.010 272.596,97.643 273.267,91.089 273.267 C 84.187 273.267,83.172 272.694,83.195 268.812 C 83.258 258.457,85.312 255.446,92.310 255.446 C 97.569 255.446,99.010 254.637,99.010 251.688 C 99.010 247.811,105.812 246.020,134.418 242.366 C 143.178 241.247,146.785 239.486,154.684 232.470 C 159.970 227.776,166.313 222.913,168.781 221.663 C 171.248 220.414,169.926 222.222,165.842 225.682 C 150.532 238.649,156.846 245.545,184.028 245.545 C 201.857 245.545,201.980 245.579,201.980 250.495 C 201.980 255.042,202.706 255.446,210.891 255.446 C 219.076 255.446,219.802 255.042,219.802 250.495 C 219.802 247.415,220.924 245.545,222.772 245.545 C 225.165 245.545,225.743 242.464,225.743 229.703 L 225.743 213.861 208.416 213.948 C 198.538 213.998,187.684 215.262,183.168 216.889 C 173.054 220.532,171.803 220.437,178.948 216.566 C 188.395 211.448,238.400 208.793,243.399 213.143 M215.842 229.703 L 215.842 235.644 192.629 235.644 C 171.191 235.644,169.748 235.411,173.757 232.603 C 182.401 226.549,191.326 223.916,203.465 223.840 L 215.842 223.762 215.842 229.703 M261.148 230.545 L 266.247 235.644 252.925 235.644 L 239.604 235.644 239.604 229.442 C 239.604 221.405,252.677 222.074,261.148 230.545 M128.713 274.257 C 128.713 280.334,121.785 281.239,120.248 275.362 C 119.047 270.769,120.214 269.307,125.083 269.307 C 127.635 269.307,128.713 270.777,128.713 274.257 M282.797 273.791 C 283.611 278.019,277.452 280.795,275.231 277.201 C 272.947 273.505,275.180 269.004,278.939 269.728 C 280.696 270.066,282.432 271.894,282.797 273.791 M257.941 288.838 C 259.783 291.957,263.843 295.744,266.962 297.254 C 271.909 299.650,263.617 300.000,201.955 300.000 C 134.547 300.000,131.533 299.844,136.818 296.629 C 139.865 294.775,143.847 290.988,145.665 288.213 L 148.970 283.168 201.781 283.168 L 254.592 283.168 257.941 288.838 "></path>
    </g>
</svg>

